# xmcd
#
# Track frame offsets:
#	150
#	2039
#	32744
#	65197
#	97501
#	114551
#	145409
#	174129
#	203387
#	232623
#	257833
#	288329
#
# Disc length: 4074 seconds
#
# Revision: 1
# Processed by: cddbd v1.5.2PL0 Copyright (c) Steve Scherf et al.
# Submitted via: audiograbber 1.83.01
#
DISCID=930fe80c
DTITLE=Klaus-Peter Wolf - Ostfriesenfete - CD 1
DYEAR=2016
DGENRE=Hörbuch
TTITLE0=Ostfriesenfete 01
TTITLE1=Ostfriesenfete 02
TTITLE2=Ostfriesenfete 03
TTITLE3=Ostfriesenfete 04
TTITLE4=Ostfriesenfete 05
TTITLE5=Ostfriesenfete 06
TTITLE6=Ostfriesenfete 07
TTITLE7=Ostfriesenfete 08
TTITLE8=Ostfriesenfete 09
TTITLE9=Ostfriesenfete 10
TTITLE10=Ostfriesenfete 11
TTITLE11=Ostfriesenfete 12
EXTD=
EXTT0=
EXTT1=
EXTT2=
EXTT3=
EXTT4=
EXTT5=
EXTT6=
EXTT7=
EXTT8=
EXTT9=
EXTT10=
EXTT11=
PLAYORDER=
